<?xml version="1.0" encoding="UTF-8" standalone="no"?>
<svg
   xmlns:dc="http://purl.org/dc/elements/1.1/"
   xmlns:cc="http://creativecommons.org/ns#"
   xmlns:rdf="http://www.w3.org/1999/02/22-rdf-syntax-ns#"
   xmlns:svg="http://www.w3.org/2000/svg"
   xmlns="http://www.w3.org/2000/svg"
   xmlns:sodipodi="http://sodipodi.sourceforge.net/DTD/sodipodi-0.dtd"
   xmlns:inkscape="http://www.inkscape.org/namespaces/inkscape"
   version="1.1"
   id="Warstwa_1"
   x="0px"
   y="0px"
   viewBox="0 0 1383.67 841.44"
   style="enable-background:new 0 0 1383.67 841.44;"
   xml:space="preserve"
   sodipodi:docname="Mainframe_Pantium.svg"
   inkscape:version="1.0.2 (e86c870879, 2021-01-15, custom)"><metadata
   id="metadata1859"><rdf:RDF><cc:Work
       rdf:about=""><dc:format>image/svg+xml</dc:format><dc:type
         rdf:resource="http://purl.org/dc/dcmitype/StillImage" /><dc:title></dc:title></cc:Work></rdf:RDF></metadata><defs
   id="defs1857" /><sodipodi:namedview
   pagecolor="#ffffff"
   bordercolor="#666666"
   borderopacity="1"
   objecttolerance="10"
   gridtolerance="10"
   guidetolerance="10"
   inkscape:pageopacity="0"
   inkscape:pageshadow="2"
   inkscape:window-width="1920"
   inkscape:window-height="1017"
   id="namedview1855"
   showgrid="true"
   inkscape:zoom="1.9310963"
   inkscape:cx="191.50073"
   inkscape:cy="177.23246"
   inkscape:window-x="-8"
   inkscape:window-y="-8"
   inkscape:window-maximized="1"
   inkscape:current-layer="Warstwa_1"
   inkscape:snap-bbox="false"
   inkscape:document-rotation="0"><inkscape:grid
     type="xygrid"
     id="grid1863" /></sodipodi:namedview>
<style
   type="text/css"
   id="style833">
	.st0{fill:#FFFFFF;stroke:#000000;stroke-miterlimit:10;}
	.st1{opacity:0.99;fill:#FFFFFF;stroke:#000000;stroke-miterlimit:10;}
	.st2{fill:#FFFFFF;stroke:#020203;stroke-width:1;stroke-linecap:round;stroke-linejoin:round;stroke-miterlimit:15.1181;}
	.st3{fill:#FFFFFF;stroke:#020203;stroke-width:1;stroke-miterlimit:15.1181;}
	.st4{fill:none;stroke:#020203;stroke-width:1;stroke-miterlimit:15.1181;}
	.st5{fill:#FFFFFF;stroke:#020203;stroke-miterlimit:15.1181;}
	.st6{fill:none;stroke:#020203;stroke-miterlimit:15.1181;}
	.st7{fill:#FFFFFF;stroke:#000000;stroke-width:0.5;stroke-miterlimit:15.1181;}
	.st8{fill:none;stroke:#000000;stroke-miterlimit:10;}
	.st9{fill:#FFFFFF;stroke:#020203;stroke-miterlimit:10;}
	.st10{font-family:'MyriadPro-Regular';}
	.st11{font-size:12px;}
	.st12{opacity:0.99;}
	.st13{opacity:0.99;fill:#FFFFFF;stroke:#000000;stroke-width:0.5;stroke-miterlimit:10;}
	.st14{opacity:0.81;}
	.st15{fill:#FFFFFF;}
	.st16{stroke:#000000;stroke-miterlimit:10;}
	.st17{fill:none;stroke:#FFFFFF;stroke-miterlimit:10;}
	.st18{fill:#FFFFFF;stroke:#000000;stroke-width:0.5;stroke-miterlimit:10;}
	.st19{fill:#3AAA35;}
</style>




















































<rect
   x="116.37"
   y="129.67"
   transform="matrix(0.999 0.0441 -0.0441 0.999 5.9224 -5.3085)"
   class="st0"
   width="14.04"
   height="4.06"
   id="rect994" />
<rect
   x="116.51"
   y="79.53"
   transform="matrix(0.999 0.0441 -0.0441 0.999 3.6658 -5.3176)"
   class="st0"
   width="11.91"
   height="1.95"
   id="rect996" />
<g
   id="g2190"
   transform="translate(-11.850178,-29.534873)">
	
		<ellipse
   transform="matrix(0.9918,-0.1279,0.1279,0.9918,-12.0784,18.4374)"
   class="st0"
   cx="137.58"
   cy="103.3"
   rx="2.49"
   ry="3.0699999"
   id="ellipse2184" />
	<circle
   cx="137.53999"
   cy="102.6"
   r="0.41999999"
   id="circle2186" />
	<circle
   cx="137.53999"
   cy="104.32"
   r="0.41999999"
   id="circle2188" />
</g><rect
   x="120.55"
   y="73.17"
   transform="matrix(0.9082 0.4185 -0.4185 0.9082 43.9718 -44.7091)"
   class="st0"
   width="6.74"
   height="9.45"
   id="rect998" />
<rect
   x="117.42"
   y="133.69"
   transform="matrix(0.999 0.0441 -0.0441 0.999 6.1266 -5.2452)"
   class="st0"
   width="9.28"
   height="5.35"
   id="rect1000" />
<rect
   x="115.62"
   y="139.07"
   transform="matrix(0.999 0.0441 -0.0441 0.999 6.3296 -5.2228)"
   class="st0"
   width="12.06"
   height="3.83"
   id="rect1002" />
<g
   id="g2170"
   transform="translate(7.8726244,41.377049)">
	
		<ellipse
   transform="matrix(0.9918,-0.1279,0.1279,0.9918,-9.3231,14.5372)"
   class="st0"
   cx="108.58"
   cy="79.889999"
   rx="2.49"
   ry="3.0699999"
   id="ellipse2164" />
	<circle
   cx="108.54"
   cy="79.190002"
   r="0.41999999"
   id="circle2166" />
	<circle
   cx="108.54"
   cy="80.910004"
   r="0.41999999"
   id="circle2168" />
</g><path
   class="st0"
   d="M141.38,87.69l-3.51,40.07c-0.25,2.82-2.87,4.96-5.84,4.77l-21.87-1.45c-2.96-0.2-5.19-2.66-4.94-5.48l0.4-4.51  l8.55,0.57c2.96,0.19,5.59-1.95,5.84-4.77l1.82-20.79c0.25-2.82-1.98-5.29-4.94-5.48l-8.55-0.56l0.34-3.83l-3.36-0.46  c-1.87-0.26-3.19-1.99-2.93-3.86l0.76-5.53c0.25-1.87,1.99-3.19,3.86-2.94l4.24,0.58c1.87,0.26,3.19,1.99,2.93,3.86l-0.4,2.9  c0.26-0.02,0.52-0.02,0.79,0l21.88,1.45C139.41,82.41,141.63,84.88,141.38,87.69z"
   id="path1004" />
<ellipse
   transform="matrix(0.9918 -0.1279 0.1279 0.9918 -19.709 16.9341)"
   class="st0"
   cx="122.05"
   cy="161.99"
   rx="3"
   ry="3.7"
   id="ellipse1006" />
<path
   class="st0"
   d="M136.59,110.21L136.59,110.21c-1.81-0.25-3.09-1.93-2.84-3.74l1.07-7.86c0.25-1.81,1.93-3.09,3.74-2.84h0  c1.81,0.25,3.09,1.93,2.84,3.74l-1.07,7.86C140.09,109.18,138.4,110.46,136.59,110.21z"
   id="path1008" />
<path
   class="st0"
   d="M138.59,142.24c0.59,14.63-5.99,27.44-14.71,27.14c-15.36-0.53-16.26-11.22-16.85-25.86l15.06-0.61  L138.59,142.24z"
   id="path1010" />
<path
   class="st0"
   d="M107.28,150.04l5.05-0.65l0.84,11.13l-3.86-0.18C109.31,160.34,106.79,151.24,107.28,150.04z"
   id="path1012" />
<path
   class="st0"
   d="M138.45,148.03l-7.9-0.08l-1.21,10.48l6.5,0.61C135.84,159.05,138.45,150.14,138.45,148.03z"
   id="path1014" />
<path
   class="st7"
   d="M117.3,138.84l9.08-0.37c0.02,0,0.02-0.03,0-0.03l-8.81-1c-0.02,0-0.02-0.03,0-0.03l8.67-0.45  c0.02,0,0.43-0.02,0-0.03l-8.57-1.31c-0.02,0-0.02-0.03,0-0.03l8.35-0.01c0.02,0,0.79-0.06,0.11-0.2l-8.44-1.18  c-0.02,0-0.02-0.03,0-0.03l9.12-0.24"
   id="path1016" />
<g
   id="g1024">
	
		<ellipse
   transform="matrix(0.9918,-0.1279,0.1279,0.9918,-12.0784,18.4374)"
   class="st0"
   cx="137.58"
   cy="103.3"
   rx="2.49"
   ry="3.0699999"
   id="ellipse1018" />
	<circle
   cx="137.53999"
   cy="102.6"
   r="0.41999999"
   id="circle1020" />
	<circle
   cx="137.53999"
   cy="104.32"
   r="0.41999999"
   id="circle1022" />
</g>
<g
   id="g1032">
	
		<ellipse
   transform="matrix(0.9918,-0.1279,0.1279,0.9918,-9.3231,14.5372)"
   class="st0"
   cx="108.58"
   cy="79.889999"
   rx="2.49"
   ry="3.0699999"
   id="ellipse1026" />
	<circle
   cx="108.54"
   cy="79.190002"
   r="0.41999999"
   id="circle1028" />
	<circle
   cx="108.54"
   cy="80.910004"
   r="0.41999999"
   id="circle1030" />
</g>
<g
   id="g1040"
   transform="translate(-2.0139272,0.36616858)">
	
		<ellipse
   transform="matrix(0.9918,-0.1279,0.1279,0.9918,-19.8282,17.0404)"
   class="st0"
   cx="122.82"
   cy="162.97"
   rx="2.49"
   ry="3.0699999"
   id="ellipse1034" />
	<circle
   cx="122.78"
   cy="162.27"
   r="0.41999999"
   id="circle1036" />
	<circle
   cx="122.78"
   cy="163.99001"
   r="0.41999999"
   id="circle1038" />
</g>



































































































































































































































































































































<g
   id="g2178"
   transform="translate(11.059997,-9.6706726)">
	
		<ellipse
   transform="matrix(0.9918,-0.1279,0.1279,0.9918,-19.8282,17.0404)"
   class="st0"
   cx="122.82"
   cy="162.97"
   rx="2.49"
   ry="3.0699999"
   id="ellipse2172" />
	<circle
   cx="122.78"
   cy="162.27"
   r="0.41999999"
   id="circle2174" />
	<circle
   cx="122.78"
   cy="163.99001"
   r="0.41999999"
   id="circle2176" />
</g></svg>
